<mxfile host="app.diagrams.net" modified="2023-06-04T14:01:12.955Z" agent="Mozilla/5.0 (Windows NT 10.0; Win64; x64) AppleWebKit/537.36 (KHTML, like Gecko) Chrome/114.0.0.0 Safari/537.36" version="21.3.7" etag="r6qugU1O_ckbUTazmGvw" type="github">
  <diagram name="第 1 页" id="ImxB4aBlX-mK2y4v5lOe">
    <mxGraphModel>
      <root>
        <mxCell id="0" />
        <mxCell id="1" parent="0" />
      </root>
    </mxGraphModel>
  </diagram>
</mxfile>
